{"accessors" : [{"bufferView" : 0, "byteOffset" : 0, "componentType" : 5123, "count" : 36420, "type" : "SCALAR", "max" : [30506], "min" : [0]}, {"bufferView" : 1, "byteOffset" : 0, "componentType" : 5126, "count" : 30507, "type" : "VEC3", "max" : [10, 19.28472900390625, 13.400001525878906], "min" : [-10, 0, -10], "name" : "POSITION"}, {"bufferView" : 1, "byteOffset" : 12, "componentType" : 5126, "count" : 30507, "type" : "VEC2", "max" : [0.9999549984931946, -0.031773000955581665], "min" : [0.008737999945878983, -0.9952409863471985], "name" : "TEXCOORD_0"}, {"bufferView" : 1, "byteOffset" : 20, "componentType" : 5126, "count" : 30507, "type" : "VEC3", "max" : [1.0000044107437134, 1.0000044107437134, 1.0000044107437134], "min" : [-1.0000044107437134, -1.0000044107437134, -1.0000044107437134], "name" : "NORMAL"}, {"bufferView" : 0, "byteOffset" : 72840, "componentType" : 5123, "count" : 52680, "type" : "SCALAR", "max" : [44024], "min" : [0]}, {"bufferView" : 2, "byteOffset" : 0, "componentType" : 5126, "count" : 44025, "type" : "VEC3", "max" : [8.106931686401367, 37.380001068115234, 7.106937885284424], "min" : [-8.106929779052734, 2.4000000953674316, -9.106924057006836], "name" : "POSITION"}, {"bufferView" : 2, "byteOffset" : 12, "componentType" : 5126, "count" : 44025, "type" : "VEC2", "max" : [0.9927350282669067, -0.007416999898850918], "min" : [0.00827800016850233, -0.9988890290260315], "name" : "TEXCOORD_0"}, {"bufferView" : 2, "byteOffset" : 20, "componentType" : 5126, "count" : 44025, "type" : "VEC3", "max" : [1.0000044107437134, 1.0000044107437134, 1.0000044107437134], "min" : [-1.0000044107437134, -1.0000044107437134, -1.0000044107437134], "name" : "NORMAL"}], "asset" : {"generator" : "Aspose.3D 23.2", "version" : "2.0"}, "buffers" : [{"uri" : "data:application/octet-stream;base64,", "byteLength" : 3029412}], "bufferViews" : [{"buffer" : 0, "byteOffset" : 0, "byteLength" : 178200, "target" : 34963}, {"buffer" : 0, "byteOffset" : 178204, "byteLength" : 1165440, "byteStride" : 32, "target" : 34962}, {"buffer" : 0, "byteOffset" : 1343648, "byteLength" : 1685760, "byteStride" : 32, "target" : 34962}], "meshes" : [{"primitives" : [{"attributes" : {"POSITION" : 1, "TEXCOORD_0" : 2, "NORMAL" : 3}, "indices" : 0, "mode" : 4}, {"attributes" : {"POSITION" : 5, "TEXCOORD_0" : 6, "NORMAL" : 7}, "indices" : 4, "mode" : 4}], "name" : ""}], "nodes" : [{"mesh" : 0, "name" : "Japanese_Shrine_Cylinder.030"}], "scene" : 0, "scenes" : [{"nodes" : [0]}]}